<mxfile host="65bd71144e">
    <diagram id="HEidcOh3jcqZl-IXIvwQ" name="Page-1">
        <mxGraphModel dx="442" dy="1317" grid="1" gridSize="10" guides="1" tooltips="1" connect="1" arrows="1" fold="1" page="1" pageScale="1" pageWidth="850" pageHeight="1100" background="#283542" math="0" shadow="0">
            <root>
                <mxCell id="0"/>
                <mxCell id="1" parent="0"/>
                <mxCell id="15" style="edgeStyle=none;html=1;exitX=1;exitY=0.75;exitDx=0;exitDy=0;" edge="1" parent="1" source="2" target="14">
                    <mxGeometry relative="1" as="geometry">
                        <mxPoint x="120" y="50" as="sourcePoint"/>
                    </mxGeometry>
                </mxCell>
                <mxCell id="16" style="edgeStyle=none;html=1;exitX=1;exitY=0.75;exitDx=0;exitDy=0;entryX=0;entryY=0.5;entryDx=0;entryDy=0;" edge="1" parent="1" source="2" target="13">
                    <mxGeometry relative="1" as="geometry"/>
                </mxCell>
                <mxCell id="2" value="seller" style="shape=actor;whiteSpace=wrap;html=1;fillColor=#60a917;fontColor=#ffffff;strokeColor=#2D7600;" vertex="1" parent="1">
                    <mxGeometry x="80" y="30" width="40" height="60" as="geometry"/>
                </mxCell>
                <mxCell id="5" style="edgeStyle=none;html=1;exitX=1;exitY=0.75;exitDx=0;exitDy=0;entryX=0;entryY=0.5;entryDx=0;entryDy=0;" edge="1" parent="1" source="3" target="8">
                    <mxGeometry relative="1" as="geometry">
                        <mxPoint x="190" y="170" as="targetPoint"/>
                    </mxGeometry>
                </mxCell>
                <mxCell id="17" style="edgeStyle=none;html=1;entryX=0;entryY=0.5;entryDx=0;entryDy=0;" edge="1" parent="1" source="3" target="7">
                    <mxGeometry relative="1" as="geometry"/>
                </mxCell>
                <mxCell id="18" style="edgeStyle=none;html=1;entryX=0;entryY=0.5;entryDx=0;entryDy=0;exitX=1;exitY=0.75;exitDx=0;exitDy=0;" edge="1" parent="1" source="3" target="10">
                    <mxGeometry relative="1" as="geometry"/>
                </mxCell>
                <mxCell id="19" style="edgeStyle=none;html=1;entryX=0;entryY=0.5;entryDx=0;entryDy=0;exitX=1;exitY=0.75;exitDx=0;exitDy=0;" edge="1" parent="1" source="3" target="13">
                    <mxGeometry relative="1" as="geometry"/>
                </mxCell>
                <mxCell id="3" value="customer" style="shape=actor;whiteSpace=wrap;html=1;fillColor=#1ba1e2;fontColor=#ffffff;strokeColor=#006EAF;" vertex="1" parent="1">
                    <mxGeometry x="80" y="140" width="40" height="60" as="geometry"/>
                </mxCell>
                <mxCell id="7" value="add item to cart" style="ellipse;whiteSpace=wrap;html=1;" vertex="1" parent="1">
                    <mxGeometry x="220" y="220" width="140" height="70" as="geometry"/>
                </mxCell>
                <mxCell id="8" value="select an item" style="ellipse;whiteSpace=wrap;html=1;" vertex="1" parent="1">
                    <mxGeometry x="220" y="110" width="140" height="70" as="geometry"/>
                </mxCell>
                <mxCell id="10" value="checkout" style="ellipse;whiteSpace=wrap;html=1;" vertex="1" parent="1">
                    <mxGeometry x="220" y="330" width="140" height="70" as="geometry"/>
                </mxCell>
                <mxCell id="12" value="search for item" style="ellipse;whiteSpace=wrap;html=1;" vertex="1" parent="1">
                    <mxGeometry x="220" y="10" width="140" height="70" as="geometry"/>
                </mxCell>
                <mxCell id="21" style="edgeStyle=none;html=1;exitX=1;exitY=0.5;exitDx=0;exitDy=0;entryX=0;entryY=0.5;entryDx=0;entryDy=0;" edge="1" parent="1" source="13" target="20">
                    <mxGeometry relative="1" as="geometry"/>
                </mxCell>
                <mxCell id="13" value="login" style="ellipse;whiteSpace=wrap;html=1;" vertex="1" parent="1">
                    <mxGeometry x="220" y="-220" width="140" height="70" as="geometry"/>
                </mxCell>
                <mxCell id="14" value="add item to sell" style="ellipse;whiteSpace=wrap;html=1;" vertex="1" parent="1">
                    <mxGeometry x="220" y="-100" width="140" height="70" as="geometry"/>
                </mxCell>
                <mxCell id="20" value="functionality:&lt;br&gt;- continue as guest&lt;br&gt;or&lt;br&gt;- new user: create user in system&lt;br&gt;or&lt;br&gt;- user attempts to login and needs to verify info" style="rounded=0;whiteSpace=wrap;html=1;" vertex="1" parent="1">
                    <mxGeometry x="470" y="-246.25" width="140" height="122.5" as="geometry"/>
                </mxCell>
                <mxCell id="22" value="functionality:&lt;br&gt;- check item to be added against current existing items. if item doesn't exist&lt;br&gt;" style="rounded=0;whiteSpace=wrap;html=1;" vertex="1" parent="1">
                    <mxGeometry x="470" y="-100" width="140" height="122.5" as="geometry"/>
                </mxCell>
            </root>
        </mxGraphModel>
    </diagram>
    <diagram id="l6lLDOYcvzBwDhHfOEMa" name="Page-2">
        <mxGraphModel dx="442" dy="217" grid="1" gridSize="10" guides="1" tooltips="1" connect="1" arrows="1" fold="1" page="1" pageScale="1" pageWidth="850" pageHeight="1100" math="0" shadow="0">
            <root>
                <mxCell id="PEx4AzHX_lZbcjWuHy-x-0"/>
                <mxCell id="PEx4AzHX_lZbcjWuHy-x-1" parent="PEx4AzHX_lZbcjWuHy-x-0"/>
                <mxCell id="PEx4AzHX_lZbcjWuHy-x-2" value="Vehicle Attributes" style="swimlane;fontStyle=0;childLayout=stackLayout;horizontal=1;startSize=30;horizontalStack=0;resizeParent=1;resizeParentMax=0;resizeLast=0;collapsible=1;marginBottom=0;" vertex="1" parent="PEx4AzHX_lZbcjWuHy-x-1">
                    <mxGeometry x="160" y="60" width="140" height="300" as="geometry"/>
                </mxCell>
                <mxCell id="PEx4AzHX_lZbcjWuHy-x-3" value="Tires" style="text;strokeColor=none;fillColor=none;align=left;verticalAlign=middle;spacingLeft=4;spacingRight=4;overflow=hidden;points=[[0,0.5],[1,0.5]];portConstraint=eastwest;rotatable=0;" vertex="1" parent="PEx4AzHX_lZbcjWuHy-x-2">
                    <mxGeometry y="30" width="140" height="30" as="geometry"/>
                </mxCell>
                <mxCell id="PEx4AzHX_lZbcjWuHy-x-4" value="Body" style="text;strokeColor=none;fillColor=none;align=left;verticalAlign=middle;spacingLeft=4;spacingRight=4;overflow=hidden;points=[[0,0.5],[1,0.5]];portConstraint=eastwest;rotatable=0;" vertex="1" parent="PEx4AzHX_lZbcjWuHy-x-2">
                    <mxGeometry y="60" width="140" height="30" as="geometry"/>
                </mxCell>
                <mxCell id="PEx4AzHX_lZbcjWuHy-x-5" value="Engine" style="text;strokeColor=none;fillColor=none;align=left;verticalAlign=middle;spacingLeft=4;spacingRight=4;overflow=hidden;points=[[0,0.5],[1,0.5]];portConstraint=eastwest;rotatable=0;" vertex="1" parent="PEx4AzHX_lZbcjWuHy-x-2">
                    <mxGeometry y="90" width="140" height="30" as="geometry"/>
                </mxCell>
                <mxCell id="PEx4AzHX_lZbcjWuHy-x-7" value="Windows" style="text;strokeColor=none;fillColor=none;align=left;verticalAlign=middle;spacingLeft=4;spacingRight=4;overflow=hidden;points=[[0,0.5],[1,0.5]];portConstraint=eastwest;rotatable=0;" vertex="1" parent="PEx4AzHX_lZbcjWuHy-x-2">
                    <mxGeometry y="120" width="140" height="30" as="geometry"/>
                </mxCell>
                <mxCell id="PEx4AzHX_lZbcjWuHy-x-8" value="Doors" style="text;strokeColor=none;fillColor=none;align=left;verticalAlign=middle;spacingLeft=4;spacingRight=4;overflow=hidden;points=[[0,0.5],[1,0.5]];portConstraint=eastwest;rotatable=0;" vertex="1" parent="PEx4AzHX_lZbcjWuHy-x-2">
                    <mxGeometry y="150" width="140" height="30" as="geometry"/>
                </mxCell>
                <mxCell id="PEx4AzHX_lZbcjWuHy-x-10" value="Seats" style="text;strokeColor=none;fillColor=none;align=left;verticalAlign=middle;spacingLeft=4;spacingRight=4;overflow=hidden;points=[[0,0.5],[1,0.5]];portConstraint=eastwest;rotatable=0;" vertex="1" parent="PEx4AzHX_lZbcjWuHy-x-2">
                    <mxGeometry y="180" width="140" height="30" as="geometry"/>
                </mxCell>
                <mxCell id="PEx4AzHX_lZbcjWuHy-x-13" value="Rugs" style="text;strokeColor=none;fillColor=none;align=left;verticalAlign=middle;spacingLeft=4;spacingRight=4;overflow=hidden;points=[[0,0.5],[1,0.5]];portConstraint=eastwest;rotatable=0;" vertex="1" parent="PEx4AzHX_lZbcjWuHy-x-2">
                    <mxGeometry y="210" width="140" height="30" as="geometry"/>
                </mxCell>
                <mxCell id="PEx4AzHX_lZbcjWuHy-x-14" value="Electronics" style="text;strokeColor=none;fillColor=none;align=left;verticalAlign=middle;spacingLeft=4;spacingRight=4;overflow=hidden;points=[[0,0.5],[1,0.5]];portConstraint=eastwest;rotatable=0;" vertex="1" parent="PEx4AzHX_lZbcjWuHy-x-2">
                    <mxGeometry y="240" width="140" height="30" as="geometry"/>
                </mxCell>
                <mxCell id="PEx4AzHX_lZbcjWuHy-x-28" value="Lights" style="text;strokeColor=none;fillColor=none;align=left;verticalAlign=middle;spacingLeft=4;spacingRight=4;overflow=hidden;points=[[0,0.5],[1,0.5]];portConstraint=eastwest;rotatable=0;" vertex="1" parent="PEx4AzHX_lZbcjWuHy-x-2">
                    <mxGeometry y="270" width="140" height="30" as="geometry"/>
                </mxCell>
                <mxCell id="PEx4AzHX_lZbcjWuHy-x-16" value="Tires Attributes" style="swimlane;fontStyle=0;childLayout=stackLayout;horizontal=1;startSize=30;horizontalStack=0;resizeParent=1;resizeParentMax=0;resizeLast=0;collapsible=1;marginBottom=0;" vertex="1" parent="PEx4AzHX_lZbcjWuHy-x-1">
                    <mxGeometry x="390" y="10" width="140" height="120" as="geometry"/>
                </mxCell>
                <mxCell id="PEx4AzHX_lZbcjWuHy-x-17" value="PartNumber" style="text;strokeColor=none;fillColor=none;align=left;verticalAlign=middle;spacingLeft=4;spacingRight=4;overflow=hidden;points=[[0,0.5],[1,0.5]];portConstraint=eastwest;rotatable=0;" vertex="1" parent="PEx4AzHX_lZbcjWuHy-x-16">
                    <mxGeometry y="30" width="140" height="30" as="geometry"/>
                </mxCell>
                <mxCell id="PEx4AzHX_lZbcjWuHy-x-18" value="NumberOf" style="text;strokeColor=none;fillColor=none;align=left;verticalAlign=middle;spacingLeft=4;spacingRight=4;overflow=hidden;points=[[0,0.5],[1,0.5]];portConstraint=eastwest;rotatable=0;" vertex="1" parent="PEx4AzHX_lZbcjWuHy-x-16">
                    <mxGeometry y="60" width="140" height="30" as="geometry"/>
                </mxCell>
                <mxCell id="PEx4AzHX_lZbcjWuHy-x-19" value="Brand" style="text;strokeColor=none;fillColor=none;align=left;verticalAlign=middle;spacingLeft=4;spacingRight=4;overflow=hidden;points=[[0,0.5],[1,0.5]];portConstraint=eastwest;rotatable=0;" vertex="1" parent="PEx4AzHX_lZbcjWuHy-x-16">
                    <mxGeometry y="90" width="140" height="30" as="geometry"/>
                </mxCell>
                <mxCell id="PEx4AzHX_lZbcjWuHy-x-20" style="edgeStyle=none;html=1;exitX=1;exitY=0.5;exitDx=0;exitDy=0;entryX=-0.014;entryY=0.158;entryDx=0;entryDy=0;entryPerimeter=0;" edge="1" parent="PEx4AzHX_lZbcjWuHy-x-1" source="PEx4AzHX_lZbcjWuHy-x-3" target="PEx4AzHX_lZbcjWuHy-x-16">
                    <mxGeometry relative="1" as="geometry"/>
                </mxCell>
                <mxCell id="PEx4AzHX_lZbcjWuHy-x-22" value="Body Attributes" style="swimlane;fontStyle=0;childLayout=stackLayout;horizontal=1;startSize=30;horizontalStack=0;resizeParent=1;resizeParentMax=0;resizeLast=0;collapsible=1;marginBottom=0;" vertex="1" parent="PEx4AzHX_lZbcjWuHy-x-1">
                    <mxGeometry x="390" y="150" width="140" height="150" as="geometry"/>
                </mxCell>
                <mxCell id="PEx4AzHX_lZbcjWuHy-x-23" value="PartNumber" style="text;strokeColor=none;fillColor=none;align=left;verticalAlign=middle;spacingLeft=4;spacingRight=4;overflow=hidden;points=[[0,0.5],[1,0.5]];portConstraint=eastwest;rotatable=0;" vertex="1" parent="PEx4AzHX_lZbcjWuHy-x-22">
                    <mxGeometry y="30" width="140" height="30" as="geometry"/>
                </mxCell>
                <mxCell id="PEx4AzHX_lZbcjWuHy-x-25" value="BodyType" style="text;strokeColor=none;fillColor=none;align=left;verticalAlign=middle;spacingLeft=4;spacingRight=4;overflow=hidden;points=[[0,0.5],[1,0.5]];portConstraint=eastwest;rotatable=0;" vertex="1" parent="PEx4AzHX_lZbcjWuHy-x-22">
                    <mxGeometry y="60" width="140" height="30" as="geometry"/>
                </mxCell>
                <mxCell id="PEx4AzHX_lZbcjWuHy-x-26" value="MetalType" style="text;strokeColor=none;fillColor=none;align=left;verticalAlign=middle;spacingLeft=4;spacingRight=4;overflow=hidden;points=[[0,0.5],[1,0.5]];portConstraint=eastwest;rotatable=0;" vertex="1" parent="PEx4AzHX_lZbcjWuHy-x-22">
                    <mxGeometry y="90" width="140" height="30" as="geometry"/>
                </mxCell>
                <mxCell id="PEx4AzHX_lZbcjWuHy-x-27" value="PaintColor" style="text;strokeColor=none;fillColor=none;align=left;verticalAlign=middle;spacingLeft=4;spacingRight=4;overflow=hidden;points=[[0,0.5],[1,0.5]];portConstraint=eastwest;rotatable=0;" vertex="1" parent="PEx4AzHX_lZbcjWuHy-x-22">
                    <mxGeometry y="120" width="140" height="30" as="geometry"/>
                </mxCell>
                <mxCell id="PEx4AzHX_lZbcjWuHy-x-29" style="edgeStyle=none;html=1;exitX=1;exitY=0.5;exitDx=0;exitDy=0;entryX=-0.024;entryY=0.064;entryDx=0;entryDy=0;entryPerimeter=0;" edge="1" parent="PEx4AzHX_lZbcjWuHy-x-1" source="PEx4AzHX_lZbcjWuHy-x-4" target="PEx4AzHX_lZbcjWuHy-x-22">
                    <mxGeometry relative="1" as="geometry"/>
                </mxCell>
            </root>
        </mxGraphModel>
    </diagram>
    <diagram id="wkSRemWp06te9kScNw7y" name="Page-3">
        <mxGraphModel dx="1292" dy="217" grid="1" gridSize="10" guides="1" tooltips="1" connect="1" arrows="1" fold="1" page="1" pageScale="1" pageWidth="850" pageHeight="1100" math="0" shadow="0">
            <root>
                <mxCell id="KLdTwLOhfbaFkffGixfA-0"/>
                <mxCell id="KLdTwLOhfbaFkffGixfA-1" parent="KLdTwLOhfbaFkffGixfA-0"/>
                <mxCell id="KLdTwLOhfbaFkffGixfA-4" style="edgeStyle=none;html=1;entryX=0.5;entryY=1;entryDx=0;entryDy=0;exitX=0.5;exitY=0;exitDx=0;exitDy=0;" edge="1" parent="KLdTwLOhfbaFkffGixfA-1" source="KLdTwLOhfbaFkffGixfA-2" target="KLdTwLOhfbaFkffGixfA-3">
                    <mxGeometry relative="1" as="geometry">
                        <Array as="points">
                            <mxPoint x="240" y="240"/>
                            <mxPoint x="420" y="240"/>
                        </Array>
                    </mxGeometry>
                </mxCell>
                <mxCell id="KLdTwLOhfbaFkffGixfA-2" value="&lt;p style=&quot;margin: 0px ; margin-top: 4px ; text-align: center&quot;&gt;&lt;b&gt;Admin&lt;/b&gt;&lt;/p&gt;&lt;hr size=&quot;1&quot;&gt;&lt;p style=&quot;margin: 0px ; margin-left: 4px&quot;&gt;&lt;br&gt;&lt;/p&gt;" style="verticalAlign=top;align=left;overflow=fill;fontSize=12;fontFamily=Helvetica;html=1;" vertex="1" parent="KLdTwLOhfbaFkffGixfA-1">
                    <mxGeometry x="160" y="260" width="160" height="40" as="geometry"/>
                </mxCell>
                <mxCell id="KLdTwLOhfbaFkffGixfA-3" value="&lt;p style=&quot;margin: 0px ; margin-top: 4px ; text-align: center&quot;&gt;&lt;i&gt;&amp;lt;&amp;lt;Interface&amp;gt;&amp;gt;&lt;/i&gt;&lt;br&gt;&lt;b&gt;Account&lt;/b&gt;&lt;/p&gt;&lt;hr size=&quot;1&quot;&gt;&lt;p style=&quot;margin: 0px ; margin-left: 4px&quot;&gt;+ type: AccountType {Admin, User, Guest}&lt;br&gt;+ userid: string&lt;/p&gt;&lt;p style=&quot;margin: 0px ; margin-left: 4px&quot;&gt;+ pwd: string&lt;/p&gt;&lt;hr size=&quot;1&quot;&gt;&lt;p style=&quot;margin: 0px ; margin-left: 4px&quot;&gt;+ login(): void&lt;br&gt;&lt;/p&gt;" style="verticalAlign=top;align=left;overflow=fill;fontSize=12;fontFamily=Helvetica;html=1;" vertex="1" parent="KLdTwLOhfbaFkffGixfA-1">
                    <mxGeometry x="300" y="30" width="240" height="140" as="geometry"/>
                </mxCell>
                <mxCell id="KLdTwLOhfbaFkffGixfA-6" style="edgeStyle=none;html=1;entryX=0.5;entryY=1;entryDx=0;entryDy=0;" edge="1" parent="KLdTwLOhfbaFkffGixfA-1" source="KLdTwLOhfbaFkffGixfA-5" target="KLdTwLOhfbaFkffGixfA-3">
                    <mxGeometry relative="1" as="geometry">
                        <Array as="points">
                            <mxPoint x="420" y="240"/>
                        </Array>
                    </mxGeometry>
                </mxCell>
                <mxCell id="KLdTwLOhfbaFkffGixfA-5" value="&lt;p style=&quot;margin: 0px ; margin-top: 4px ; text-align: center&quot;&gt;&lt;b&gt;User&lt;/b&gt;&lt;/p&gt;" style="verticalAlign=top;align=left;overflow=fill;fontSize=12;fontFamily=Helvetica;html=1;" vertex="1" parent="KLdTwLOhfbaFkffGixfA-1">
                    <mxGeometry x="340" y="260" width="160" height="40" as="geometry"/>
                </mxCell>
                <mxCell id="KLdTwLOhfbaFkffGixfA-9" value="Extends" style="edgeStyle=none;html=1;entryX=0.5;entryY=1;entryDx=0;entryDy=0;exitX=0.5;exitY=0;exitDx=0;exitDy=0;" edge="1" parent="KLdTwLOhfbaFkffGixfA-1" source="KLdTwLOhfbaFkffGixfA-8" target="KLdTwLOhfbaFkffGixfA-3">
                    <mxGeometry x="0.7241" relative="1" as="geometry">
                        <Array as="points">
                            <mxPoint x="620" y="240"/>
                            <mxPoint x="420" y="240"/>
                        </Array>
                        <mxPoint as="offset"/>
                    </mxGeometry>
                </mxCell>
                <mxCell id="KLdTwLOhfbaFkffGixfA-8" value="&lt;p style=&quot;margin: 0px ; margin-top: 4px ; text-align: center&quot;&gt;&lt;b&gt;Guest&lt;/b&gt;&lt;/p&gt;" style="verticalAlign=top;align=left;overflow=fill;fontSize=12;fontFamily=Helvetica;html=1;" vertex="1" parent="KLdTwLOhfbaFkffGixfA-1">
                    <mxGeometry x="540" y="260" width="160" height="40" as="geometry"/>
                </mxCell>
                <mxCell id="5nKCREWxBeyiTzg7lU_D-1" value="&lt;p style=&quot;margin: 0px ; margin-top: 4px ; text-align: center&quot;&gt;&lt;i&gt;&amp;lt;&amp;lt;Interface&amp;gt;&amp;gt;&lt;/i&gt;&lt;br&gt;&lt;b&gt;Item&lt;/b&gt;&lt;/p&gt;&lt;hr size=&quot;1&quot;&gt;&lt;p style=&quot;margin: 0px ; margin-left: 4px&quot;&gt;+ price: double&lt;br&gt;+ type: ProductType&lt;/p&gt;&lt;p style=&quot;margin: 0px ; margin-left: 4px&quot;&gt;+ itemName: string&lt;/p&gt;&lt;hr size=&quot;1&quot;&gt;&lt;p style=&quot;margin: 0px ; margin-left: 4px&quot;&gt;+ addItem(): Type&lt;br&gt;+ method2(Type, Type): Type&lt;/p&gt;" style="verticalAlign=top;align=left;overflow=fill;fontSize=12;fontFamily=Helvetica;html=1;" vertex="1" parent="KLdTwLOhfbaFkffGixfA-1">
                    <mxGeometry x="-185" y="30" width="190" height="140" as="geometry"/>
                </mxCell>
                <mxCell id="zKvxBpCM1vI4kgzmOEym-0" style="edgeStyle=none;html=1;exitX=0.5;exitY=0;exitDx=0;exitDy=0;entryX=0.5;entryY=1;entryDx=0;entryDy=0;" edge="1" parent="KLdTwLOhfbaFkffGixfA-1" source="5nKCREWxBeyiTzg7lU_D-4" target="5nKCREWxBeyiTzg7lU_D-1">
                    <mxGeometry relative="1" as="geometry">
                        <Array as="points">
                            <mxPoint x="-250" y="190"/>
                            <mxPoint x="-90" y="190"/>
                        </Array>
                    </mxGeometry>
                </mxCell>
                <mxCell id="5nKCREWxBeyiTzg7lU_D-4" value="&lt;p style=&quot;margin: 0px ; margin-top: 4px ; text-align: center&quot;&gt;&lt;br&gt;&lt;b&gt;SellItem&lt;/b&gt;&lt;/p&gt;" style="verticalAlign=top;align=left;overflow=fill;fontSize=12;fontFamily=Helvetica;html=1;" vertex="1" parent="KLdTwLOhfbaFkffGixfA-1">
                    <mxGeometry x="-320" y="210" width="140" height="60" as="geometry"/>
                </mxCell>
                <mxCell id="zKvxBpCM1vI4kgzmOEym-1" style="edgeStyle=none;html=1;exitX=0.5;exitY=0;exitDx=0;exitDy=0;entryX=0.5;entryY=1;entryDx=0;entryDy=0;" edge="1" parent="KLdTwLOhfbaFkffGixfA-1" source="5nKCREWxBeyiTzg7lU_D-6" target="5nKCREWxBeyiTzg7lU_D-1">
                    <mxGeometry relative="1" as="geometry"/>
                </mxCell>
                <mxCell id="5nKCREWxBeyiTzg7lU_D-6" value="&lt;p style=&quot;margin: 0px ; margin-top: 4px ; text-align: center&quot;&gt;&lt;br&gt;&lt;b&gt;BuyItem&lt;/b&gt;&lt;/p&gt;" style="verticalAlign=top;align=left;overflow=fill;fontSize=12;fontFamily=Helvetica;html=1;" vertex="1" parent="KLdTwLOhfbaFkffGixfA-1">
                    <mxGeometry x="-160" y="210" width="140" height="60" as="geometry"/>
                </mxCell>
                <mxCell id="zKvxBpCM1vI4kgzmOEym-2" style="edgeStyle=none;html=1;exitX=0.5;exitY=0;exitDx=0;exitDy=0;entryX=0.5;entryY=1;entryDx=0;entryDy=0;" edge="1" parent="KLdTwLOhfbaFkffGixfA-1" source="5nKCREWxBeyiTzg7lU_D-8" target="5nKCREWxBeyiTzg7lU_D-1">
                    <mxGeometry relative="1" as="geometry">
                        <Array as="points">
                            <mxPoint x="70" y="190"/>
                            <mxPoint x="-90" y="190"/>
                        </Array>
                    </mxGeometry>
                </mxCell>
                <mxCell id="5nKCREWxBeyiTzg7lU_D-8" value="&lt;p style=&quot;margin: 0px ; margin-top: 4px ; text-align: center&quot;&gt;&lt;br&gt;&lt;b&gt;CheckoutItem&lt;/b&gt;&lt;/p&gt;" style="verticalAlign=top;align=left;overflow=fill;fontSize=12;fontFamily=Helvetica;html=1;" vertex="1" parent="KLdTwLOhfbaFkffGixfA-1">
                    <mxGeometry y="210" width="140" height="60" as="geometry"/>
                </mxCell>
                <mxCell id="zKvxBpCM1vI4kgzmOEym-4" value="&lt;p style=&quot;margin: 0px ; margin-top: 4px ; text-align: center&quot;&gt;&lt;b&gt;AccountClient&lt;/b&gt;&lt;/p&gt;&lt;hr size=&quot;1&quot;&gt;&lt;p style=&quot;margin: 0px ; margin-left: 4px&quot;&gt;+ field: Type&lt;/p&gt;&lt;hr size=&quot;1&quot;&gt;&lt;p style=&quot;margin: 0px ; margin-left: 4px&quot;&gt;+ method(): Type&lt;/p&gt;" style="verticalAlign=top;align=left;overflow=fill;fontSize=12;fontFamily=Helvetica;html=1;" vertex="1" parent="KLdTwLOhfbaFkffGixfA-1">
                    <mxGeometry x="40" y="30" width="160" height="90" as="geometry"/>
                </mxCell>
            </root>
        </mxGraphModel>
    </diagram>
    <diagram id="MfOFEn6Vz6F2tztxBuqO" name="Page-4">
        <mxGraphModel dx="442" dy="217" grid="1" gridSize="10" guides="1" tooltips="1" connect="1" arrows="1" fold="1" page="1" pageScale="1" pageWidth="850" pageHeight="1100" math="0" shadow="0">
            <root>
                <mxCell id="ZUeREGmsWL93Jdq3sNOu-0"/>
                <mxCell id="ZUeREGmsWL93Jdq3sNOu-1" parent="ZUeREGmsWL93Jdq3sNOu-0"/>
            </root>
        </mxGraphModel>
    </diagram>
</mxfile>